<?xml version="1.0" encoding="UTF-8" standalone="no"?>
<svg
   xmlns:dc="http://purl.org/dc/elements/1.1/"
   xmlns:cc="http://creativecommons.org/ns#"
   xmlns:rdf="http://www.w3.org/1999/02/22-rdf-syntax-ns#"
   xmlns:svg="http://www.w3.org/2000/svg"
   xmlns="http://www.w3.org/2000/svg"
   id="svg3835"
   xml:space="preserve"
   enable-background="new 0 0 418 136.961"
   viewBox="0 0 418 136.961"
   height="136.961px"
   width="418px"
   y="0px"
   x="0px"
   version="1.1"><metadata
   id="metadata3841"><rdf:RDF><cc:Work
       rdf:about=""><dc:format>image/svg+xml</dc:format><dc:type
         rdf:resource="http://purl.org/dc/dcmitype/StillImage" /><dc:title></dc:title></cc:Work></rdf:RDF></metadata><defs
   id="defs3839" />
<g
   id="图层_1">
	<path
   id="path3680"
   d="M68.259-11.953"
   stroke-miterlimit="10"
   stroke="#FFFFFF"
   fill="none" />
	<polygon
   id="polygon3682"
   points="24.274,50.961 48.613,84.031 55.387,77.256 51.701,3.529 38.186,3.529  "
   fill="#FFFFFF" />
	<polygon
   id="polygon3684"
   points="60.961,35.613 88.308,3.529 59.356,3.529  "
   fill="#FFFFFF" />
	<polygon
   id="polygon3686"
   points="134.52,82.581 60.871,82.581 30.022,113.43 134.52,89.136  "
   fill="#FFFFFF" />
	<polygon
   id="polygon3688"
   points="2,33.606 2,130.643 43.149,89.496 15.886,52.47 15.864,52.462 15.866,52.449  "
   fill="#FFFFFF" />
	<polygon
   id="polygon3690"
   points="98.346,3.529 61.513,46.735 62.679,69.967 129.116,3.529  "
   fill="#FFFFFF" />
	<polygon
   id="polygon3692"
   points="68.512,74.935 134.52,74.935 134.52,62.557 85.925,57.526  "
   fill="#FFFFFF" />
	<polygon
   id="polygon3694"
   points="18.573,43.226 30.22,3.529 2,3.529 2,20.713  "
   fill="#FFFFFF" />
	<polygon
   id="polygon3696"
   points="103.746,104.133 22.184,123.095 21.839,121.611 7.403,136.047 134.52,136.047 134.52,118.945  "
   fill="#FFFFFF" />
	<polygon
   id="polygon3698"
   points="134.52,35.579 134.52,8.929 92.888,50.562 105.496,51.864 105.331,51.566  "
   fill="#FFFFFF" />
	<polygon
   id="polygon3700"
   points="118.278,53.19 134.52,54.87 134.52,44.291  "
   fill="#FFFFFF" />
	<polygon
   id="polygon3702"
   points="134.52,96.977 115.633,101.366 134.52,110.46  "
   fill="#FFFFFF" />
	<g
   id="g3740">
		<path
   id="path3704"
   d="M167.626,13.746c-0.031,0.913-0.062,2.352-0.185,4.126c0.429,2.844,2.263,17.377,13.338,22.332    c-0.211,0.121-0.518,0.458-0.645,0.704c-9.081-4.161-12.019-14.594-13.062-20.1c-1.009,6.733-4.007,15.789-13.063,20.159    c-0.119-0.215-0.427-0.485-0.643-0.642c13.062-6.179,13.278-22.39,13.339-26.58H167.626z"
   fill="#FFFFFF" />
		<path
   id="path3706"
   d="M193.7,15.335c-0.979,2.446-2.235,5.381-3.424,7.893c2.6,2.66,3.241,4.955,3.241,6.971    c0,1.318-0.304,2.603-1.041,3.124c-0.368,0.242-0.855,0.396-1.438,0.458c-0.674,0.059-1.464,0.059-2.138,0    c-0.034-0.248-0.155-0.615-0.339-0.89c0.855,0.064,1.653,0.095,2.231,0.032c0.43-0.032,0.799-0.122,1.072-0.308    c0.58-0.396,0.764-1.437,0.764-2.416c0-1.895-0.732-4.13-3.393-6.852c1.22-2.57,2.414-5.291,3.239-7.496H186.3v25.362h-0.888    V14.965h7.523l0.155-0.061L193.7,15.335z M198.75,28.764c-0.979,3.516-2.57,6.913-4.316,9.176    c-0.121-0.124-0.548-0.396-0.794-0.521c1.838-2.231,3.303-5.475,4.193-8.809L198.75,28.764z M211.048,23.685v0.888h-8.104v14.988    c0,0.826-0.243,1.132-0.89,1.316c-0.671,0.181-1.989,0.181-4.221,0.181c-0.062-0.27-0.217-0.61-0.369-0.913    c1.958,0.06,3.521,0.031,3.949,0c0.487-0.036,0.608-0.156,0.608-0.584V24.573h-7.095v-0.888H211.048z M209.389,17.258H196.18    v-0.883h13.209V17.258z M206.916,28.578c1.561,2.876,3.211,6.7,3.857,8.997l-0.943,0.274c-0.585-2.264-2.207-6.149-3.767-9.085    L206.916,28.578z"
   fill="#FFFFFF" />
		<path
   id="path3708"
   d="M216.17,20.015h0.882v21.199h-0.882V20.015z M217.304,14.203c1.438,1.192,3.081,2.936,3.851,4.071    l-0.738,0.516c-0.73-1.159-2.382-2.907-3.821-4.161L217.304,14.203z M222.715,22.49h10.554v13.249h-10.554V22.49z M223.605,28.639    h8.782v-5.261h-8.782V28.639z M223.605,34.851h8.782v-5.323h-8.782V34.851z M239.905,39.533c0,0.854-0.213,1.191-0.792,1.375    c-0.616,0.183-1.78,0.183-3.614,0.183c-0.083-0.244-0.244-0.676-0.396-0.982c1.591,0.067,2.968,0.036,3.37,0.036    c0.427-0.036,0.548-0.156,0.548-0.584V16.404h-15.12v-0.887h16.004V39.533z"
   fill="#FFFFFF" />
		<path
   id="path3710"
   d="M255.088,34.699c0.099,0.214,0.251,0.551,0.342,0.704c-4.862,3.364-5.479,3.824-5.845,4.281    c-0.084-0.246-0.335-0.672-0.486-0.917c0.273-0.152,0.761-0.52,0.761-1.651V24.267h-4.863v-0.889h5.754v14.167L255.088,34.699z     M251.419,19.984c-0.975-1.225-2.847-3.211-4.468-4.617l0.648-0.551c1.59,1.373,3.546,3.242,4.436,4.467L251.419,19.984z     M272.316,26.776v0.885h-19.033v-0.885h5.199c0.433-1.499,0.95-3.518,1.445-5.601h-4.438v-0.885h4.612    c0.373-1.591,0.745-3.183,1.012-4.558h-6.75v-0.889h16.88v0.889h-9.179c-0.266,1.406-0.608,2.999-0.982,4.558h7.284l0.182-0.093    l0.609,0.123c-0.213,1.867-0.479,4.434-0.821,6.456H272.316z M256.138,30.933h14.002v10.125h-0.883v-1.284h-12.236v1.379h-0.883    V30.933z M257.021,31.822v7.067h12.236v-7.067H257.021z M260.848,21.175c-0.493,2.083-0.981,4.102-1.415,5.601h8.051    c0.273-1.747,0.518-4.041,0.738-5.601H260.848z"
   fill="#FFFFFF" />
		<path
   id="path3712"
   d="M302.825,18.639v0.883h-27.008v-0.883H302.825z M280.245,31.792h17.968v9.267h-0.891v-1.465h-16.186v1.56    h-0.892V31.792z M297.871,23.685h-17.412v-0.889h17.412V23.685z M280.459,27.205h17.412v0.889h-17.412V27.205z M281.137,32.68    v6.023h16.186V32.68H281.137z M290.565,18.238c-0.647-1.159-2.146-2.903-3.463-4.157l0.769-0.431    c1.317,1.224,2.777,2.936,3.447,4.1L290.565,18.238z"
   fill="#FFFFFF" />
		<path
   id="path3714"
   d="M325.906,26.069c-1.225,3.399-3.029,6.089-5.296,8.264c3.401,2.875,7.807,4.798,13.096,5.689    c-0.213,0.214-0.494,0.58-0.639,0.855c-5.296-1.008-9.733-2.997-13.158-5.934c-3.425,2.997-7.921,4.954-13.31,6.332    c-0.091-0.246-0.396-0.643-0.609-0.889c5.41-1.191,9.848-3.087,13.25-6.025c-2.329-2.203-4.17-4.893-5.419-8.076l0.822-0.336    c1.194,3.026,2.968,5.656,5.266,7.77c2.23-2.078,3.919-4.713,5.084-7.922L325.906,26.069z M332.694,19.065H306.76v-0.887h25.935    V19.065z M315.717,21.053c-2.048,2.602-5.198,5.293-7.832,7.099c-0.151-0.185-0.486-0.583-0.699-0.767    c2.656-1.652,5.753-4.218,7.701-6.669L315.717,21.053z M320.062,17.536c-0.396-1.041-1.377-2.662-2.261-3.856l0.792-0.303    c0.913,1.161,1.896,2.783,2.321,3.792L320.062,17.536z M324.742,20.84c2.938,1.956,6.331,4.802,7.99,6.76l-0.745,0.613    c-1.591-1.99-4.947-4.896-7.915-6.883L324.742,20.84z"
   fill="#FFFFFF" />
		<path
   id="path3716"
   d="M342.009,26.439c-1.194-1.073-3.485-2.54-5.441-3.489l0.549-0.612c1.948,0.89,4.254,2.296,5.418,3.304    L342.009,26.439z M344.026,30.597c-1.621,3.244-3.95,7.375-5.716,10.097l-0.768-0.613c1.65-2.414,4.124-6.668,5.845-10.061    L344.026,30.597z M342.961,18.881c-1.043-1.221-3.128-3.029-4.9-4.28l0.646-0.52c1.773,1.191,3.858,2.966,4.862,4.157    L342.961,18.881z M347.428,27.756h0.883v3.455c0,3.362-0.457,7.066-4.582,9.942c-0.129-0.215-0.44-0.491-0.685-0.643    c3.979-2.694,4.384-6.24,4.384-9.299V27.756z M362.693,27.417c-0.403-0.675-1.043-1.53-1.781-2.418    c-13.645,0.888-14.771,0.98-15.479,1.255c-0.054-0.275-0.244-0.763-0.335-1.01c0.457-0.12,1.156-0.274,1.658-0.762    c0.725-0.672,3.297-3.916,4.613-5.693h-6.788v-0.888h9.481c-0.396-1.191-1.013-2.782-1.652-4.005l0.8-0.217    c0.67,1.314,1.432,3.061,1.804,4.222h8.866v0.888h-11.347c-1.317,1.777-3.485,4.558-4.862,6.119l12.602-0.795    c-1.013-1.224-2.169-2.505-3.212-3.581l0.731-0.426c2.084,2.112,4.528,5.019,5.691,6.821L362.693,27.417z M353.082,27.846h0.883    v12.023h-0.883V27.846z M361.978,39.839c0.373,0,0.716-0.03,0.899-0.156c0.182-0.122,0.326-0.396,0.425-0.854    c0.062-0.52,0.092-1.686,0.114-3.244c0.222,0.183,0.465,0.309,0.739,0.397c-0.032,1.317-0.085,2.938-0.214,3.396    c-0.092,0.52-0.266,0.826-0.609,1.008c-0.273,0.154-0.799,0.246-1.225,0.246h-1.439c-0.463,0-1.011-0.091-1.316-0.307    c-0.372-0.245-0.456-0.582-0.456-2.233V27.756h0.883V38.46c0,0.736,0.031,1.101,0.251,1.255c0.145,0.093,0.427,0.124,0.671,0.124    H361.978z"
   fill="#FFFFFF" />
		<path
   id="path3718"
   d="M374.664,13.774c-0.519,1.526-1.135,3.364-1.682,4.678h5.472v19.396h-8.874v2.633h-0.882V18.453h3.362    c0.578-1.374,1.317-3.548,1.621-4.984L374.664,13.774z M377.571,19.343h-7.991v7.951h7.991V19.343z M377.571,36.963v-8.78h-7.991    v8.78H377.571z M393.537,19.188c-0.525,14.346-1.013,18.964-2.199,20.345c-0.525,0.612-1.072,0.793-1.965,0.823    c-0.912,0.031-2.655-0.03-4.307-0.151c-0.061-0.307-0.128-0.672-0.312-0.917c2.018,0.15,3.857,0.184,4.497,0.184    c0.616,0,0.982-0.064,1.256-0.46c1.035-1.1,1.592-5.905,2.107-19.609h-9.17c-0.858,2.294-1.863,4.313-3.028,5.934    c-0.16-0.122-0.586-0.365-0.829-0.456c2.169-2.877,3.759-7.129,4.71-11.566l0.921,0.185c-0.396,1.743-0.891,3.424-1.438,5.015    h9.756V19.188z M388.118,32.71c-1.004-1.868-3.212-4.955-5.129-7.159l0.723-0.426c1.933,2.229,4.164,5.232,5.175,7.064    L388.118,32.71z"
   fill="#FFFFFF" />
		<path
   id="path3720"
   d="M165.44,82.887c0,2.106-0.268,3.481-1.491,4.286c-1.227,0.84-2.757,0.957-4.9,0.957    c-0.112-1.299-0.764-3.522-1.375-4.784c1.068,0.076,2.218,0.076,2.638,0.076c0.424,0,0.537-0.151,0.537-0.612v-7.08h-2.257    c-0.345,4.592-1.11,9.414-2.605,12.896c-0.8-0.92-2.903-2.638-3.94-3.175c1.953-5.01,2.066-12.401,2.066-17.793v-14.16h11.328    V82.887z M160.849,71.137v-4.169h-1.951v0.652c0,1.068,0,2.256-0.038,3.517H160.849z M158.897,57.743v4.785h1.951v-4.785H158.897z     M188.288,62.296h-22.08v-5.204h8.035c-0.574-1.145-1.263-2.369-1.836-3.404l4.973-1.682c0.994,1.529,2.182,3.52,2.948,5.086h7.96    V62.296z M174.168,65.359c0.803,0.804,1.644,1.684,2.486,2.604c0.689-1.801,1.302-3.714,1.762-5.668l4.549,1.038l-0.263,0.955    h4.743v24.109h-5.053v-1.265H166.82V64.25h5.087v2.869L174.168,65.359z M171.907,76.229c0.92-1.111,1.798-2.373,2.566-3.75    c-0.843-1.035-1.724-2.069-2.566-3.022V76.229z M182.393,82.008v-3.561l-2.408,1.951c-0.574-1.147-1.419-2.488-2.447-3.938    c-1.113,1.836-2.3,3.479-3.6,4.859c-0.419-0.574-1.226-1.571-2.03-2.412v3.101H182.393z M182.393,65.319    c-0.688,2.219-1.49,4.404-2.408,6.469c0.882,1.073,1.684,2.106,2.408,3.097V65.319z"
   fill="#FFFFFF" />
		<path
   id="path3722"
   d="M198.259,71.405c-1.569-1.106-4.974-2.943-7.229-4.13l2.985-4.136c2.106,0.956,5.623,2.604,7.346,3.636    L198.259,71.405z M191.411,84.301c2.027-2.831,4.934-7.459,7.272-11.938l4.092,3.711c-2.023,4.021-4.324,8.151-6.654,11.98    L191.411,84.301z M199.753,60.845c-1.494-1.111-4.783-2.947-6.888-4.208l3.136-4.018c2.031,1.029,5.397,2.716,7.041,3.747    L199.753,60.845z M217.737,68.536v4.057h7.731v15.688h-5.28v-1.376h-10.327v1.531h-5.016V72.593h7.617v-4.057h-9.801v-5.321h9.801    v-3.518c-2.343,0.342-4.71,0.612-6.971,0.805c-0.19-1.341-0.92-3.521-1.491-4.749c6.423-0.61,13.287-1.911,17.526-3.711    l4.246,4.362c-2.443,0.956-5.16,1.761-8.036,2.337v4.474h9.337v5.321H217.737z M220.188,77.604h-10.327v4.287h10.327V77.604z"
   fill="#FFFFFF" />
		<path
   id="path3724"
   d="M264.646,60.154c0,0-0.038,1.762-0.038,2.412c-0.351,15.382-0.692,21.121-1.956,22.96    c-1.028,1.493-1.994,1.956-3.402,2.262c-1.262,0.267-3.142,0.267-5.053,0.225c-0.121-1.494-0.691-3.632-1.536-5.167    c-0.998,2.069-2.292,3.943-3.897,5.591c-0.874-1.417-2.679-3.405-4.094-4.322c0.951-0.957,1.788-1.994,2.481-3.143l-3.402,1.074    c-0.076-0.424-0.152-0.88-0.312-1.381c-8.912,2.528-10.677,3.179-11.857,3.942v-0.151c-0.046,0.076-0.046,0.115-0.046,0.151    c-0.266-1.032-1.141-3.557-1.749-4.898c0.799-0.306,1.37-1.106,1.978-2.486c0.473-1.07,1.659-4.63,2.459-8.458h-4.482v-5.014    h17.069v5.014h-6.887c-0.731,2.873-1.766,5.858-2.87,8.532l5.054-1.26c-0.456-1.414-0.998-2.832-1.5-4.095l4.445-1.226    c1.141,2.563,2.366,5.856,3.097,8.38c1.72-3.749,2.375-8.266,2.604-13.621h-3.485v-5.321h3.599    c0.046-2.333,0.046-4.781,0.046-7.349h5.51c0,2.529,0,4.979-0.046,7.349H264.646z M246.16,59.848h-15.189v-4.858h15.189V59.848z     M256.184,65.476c-0.343,6.661-1.188,12.435-3.402,17.143c1.522,0.115,2.831,0.115,3.638,0.115c0.608,0,0.951-0.152,1.377-0.688    c0.77-0.995,1.065-5.473,1.332-16.57H256.184z"
   fill="#FFFFFF" />
		<path
   id="path3726"
   d="M302.011,82.314c0,2.717-0.495,4.246-2.139,5.129c-1.644,0.913-3.865,1.068-7.039,1.068    c-0.189-1.53-1.034-4.094-1.834-5.508c1.796,0.111,4.019,0.111,4.665,0.111c0.647-0.038,0.875-0.27,0.875-0.881V59.082h-22.267    v29.391h-5.396V53.842h33.134V82.314z M294.819,65.701h-18.986v-4.628h18.986V65.701z M282.65,81.277v2.41h-5.091V68.002h15.768    v13.275H282.65z M282.65,72.516v4.21h5.556v-4.21H282.65z"
   fill="#FFFFFF" />
		<path
   id="path3728"
   d="M327.032,68.038v9.032c2.977-2.029,5.389-4.592,7.154-7.996l5.471,2.485    c-6.156,10.943-16.384,14.886-30.813,16.952c-0.487-1.606-1.644-3.828-2.794-5.279c7.086-0.806,13.137-2.066,18.028-4.479h-3.02    V68.038h-14.848v-5.243h4.978v-8.458h5.653v8.458h4.946V52.118h5.997v2.485h10.951v5.206h-10.951v2.985h13.241v5.243H327.032z     M319.521,70.68c-2.215,3.368-5.769,6.85-8.873,8.954c-0.914-1.073-2.945-3.174-4.133-4.136c2.907-1.567,5.967-4.131,7.656-6.694    L319.521,70.68z"
   fill="#FFFFFF" />
		<path
   id="path3730"
   d="M375.928,82.81c0.105,0,0.221-0.038,0.296-0.191c0.121-0.191,0.159-0.536,0.191-1.341    c0.037-0.801,0.075-2.562,0.075-4.704c1.036,0.842,2.604,1.723,3.942,2.181c-0.03,2.027-0.221,4.668-0.495,5.854    c-0.228,1.187-0.654,1.991-1.339,2.526c-0.647,0.571-1.644,0.767-2.565,0.767h-2.215c-1.004,0-2.221-0.382-2.951-1.188    c-0.762-0.882-1.111-1.914-1.111-5.243V59.579h-3.752v7.233c0,6.585-0.959,16.265-6.613,21.738    c-0.846-1.032-3.029-2.868-4.33-3.636v3.597h-5.548V75.96c-0.997,2.336-2.101,4.48-3.325,6.16    c-0.541-1.644-1.834-3.786-2.717-5.167c2.367-3.33,4.482-8.265,5.585-12.513h-4.787v-5.279h5.244v-7.003h5.548v7.003h3.866v5.279    h-3.866v0.729c1.263,1.3,4.33,4.744,5.175,5.741c0.068-1.454,0.106-2.834,0.106-4.135V54.337h14.961v26.789    c0,0.882,0,1.301,0.047,1.455c0.075,0.152,0.144,0.229,0.267,0.229H375.928z M355.061,84.684c3.713-3.712,4.824-8.8,5.175-13.509    l-2.724,5.248c-0.61-1.229-1.53-2.761-2.451-4.25V84.684z"
   fill="#FFFFFF" />
		<path
   id="path3732"
   d="M395.805,64.212h7.877v5.014h-7.877v2.105h7.229v9.414c0,2.026-0.258,3.327-1.484,4.132    c-1.225,0.768-2.671,0.844-4.475,0.806c-0.121-1.344-0.699-3.294-1.271-4.593v7.347h-5.281v-12.17h-2.101v9.184h-4.939V71.331    h7.04v-2.105h-8.387v-5.014h3.029c-1.226-0.572-2.869-1.223-3.866-1.571c1.5-2.409,2.717-6.311,3.333-9.91l5.091,1.037    c-0.235,1.068-0.463,2.139-0.768,3.214h1.567v-4.558h5.281v4.558h6.393v5.009h-6.393V64.212z M390.523,64.212V61.99h-3.211    c-0.306,0.805-0.655,1.573-0.959,2.222H390.523z M395.805,76.267v4.743c0.729,0.041,1.537,0.041,1.841,0.041    c0.306,0,0.411-0.079,0.411-0.424v-4.36H395.805z M409.975,76.99H404.8V55.104h5.175V76.99z M417.044,52.924v29.311    c0,2.797-0.502,4.248-2.023,5.167c-1.575,0.88-3.875,1.071-6.903,1.071c-0.189-1.529-0.943-3.979-1.635-5.548    c1.833,0.079,3.751,0.079,4.397,0.079c0.616,0,0.837-0.194,0.837-0.808V52.924H417.044z"
   fill="#FFFFFF" />
		<path
   id="path3734"
   d="M159.849,119.207c0.096,0.185,0.21,0.413,0.256,0.506c-3.552,2.911-3.987,3.254-4.17,3.576    c-0.116-0.164-0.343-0.417-0.528-0.553c0.344-0.255,1.1-0.938,1.1-1.946v-8.8h-3.689v-0.665h4.354v9.92L159.849,119.207z     M157.378,108.279c-0.644-0.851-1.95-2.223-3.072-3.187l0.484-0.434c1.122,0.937,2.426,2.268,3.069,3.09L157.378,108.279z     M167.391,116.869c1.534,2.338,4.101,4.813,6.188,5.979c-0.186,0.142-0.366,0.345-0.508,0.531c-2.15-1.332-4.856-4.033-6.39-6.511    h-0.071v7.813h-0.664v-7.813h-0.09c-1.557,2.775-4.422,5.454-6.92,6.784c-0.113-0.184-0.322-0.41-0.481-0.552    c2.45-1.122,5.201-3.665,6.734-6.232h-5.888v-0.666h6.645v-2.609h-5.244v-8.523h10.835v8.523h-4.927v2.609h6.738v0.666H167.391z     M161.366,108.989h4.58v-3.255h-4.58V108.989z M161.366,112.928h4.58v-3.275h-4.58V112.928z M170.873,105.734h-4.263v3.255h4.263    V105.734z M170.873,109.652h-4.263v3.275h4.263V109.652z"
   fill="#FFFFFF" />
		<path
   id="path3736"
   d="M196.324,123.424c-0.137,0.209-0.273,0.479-0.319,0.687h-5.959c-5.5,0-9.511-0.617-11.733-4.173    c-0.389,1.885-1.032,3.418-2.08,4.655c-0.118-0.112-0.417-0.322-0.599-0.437c1.721-1.809,2.269-4.579,2.453-8.064l0.685,0.046    c-0.068,1.053-0.158,2.039-0.317,2.931c0.594,1.123,1.371,1.949,2.334,2.566v-7.01h-4.996v-0.664h10.337v0.664h-4.675v3.046h4.309    v0.667h-4.309v3.71c2.199,1.146,5.156,1.376,8.613,1.376H196.324z M184.776,111.851h-7.331v-6.78h7.331V111.851z M184.111,105.734    h-6.002v2.384h6.002V105.734z M184.111,108.782h-6.002v2.408h6.002V108.782z M191.49,110.593    c-0.204,6.735-0.938,10.129-5.913,11.916c-0.092-0.139-0.298-0.368-0.456-0.483c4.88-1.671,5.522-4.969,5.704-11.433H191.49z     M189.724,108.624c0.277-0.779,0.598-1.95,0.779-2.775h-4.398v-0.666h10.128v0.666h-4.995c-0.249,0.941-0.548,2.02-0.847,2.775    h4.489v9.668h-0.711v-9.009h-6.254v9.009h-0.685v-9.668H189.724z M195.544,122.167c-0.89-1.055-2.701-2.662-4.282-3.762    l0.503-0.346c1.537,1.077,3.393,2.638,4.311,3.689L195.544,122.167z"
   fill="#FFFFFF" />
		<path
   id="path3738"
   d="M206.497,116.229c0,0.207,0.046,0.46,0.069,0.618c-6.49,1.376-7.154,1.534-7.521,1.745    c-0.046-0.166-0.157-0.553-0.274-0.758c0.415-0.093,1.052-0.688,1.807-1.535c0.532-0.572,1.887-2.13,3.256-4.011    c-4.099,0.594-4.647,0.712-4.925,0.871c-0.045-0.183-0.162-0.576-0.253-0.757c0.366-0.067,0.802-0.687,1.354-1.489    c0.594-0.801,2.561-3.919,3.778-6.806l0.708,0.319c-1.347,2.8-2.952,5.64-4.555,7.723l4.425-0.571    c0.563-0.827,1.188-1.696,1.689-2.566l0.685,0.322c-1.985,3.023-4.17,5.889-6.343,8.11L206.497,116.229z M206.634,120.971    c-2.823,0.711-5.712,1.399-7.793,1.929l-0.161-0.712c1.949-0.411,4.925-1.145,7.909-1.833L206.634,120.971z M219.251,123.446    v0.664H206.01v-0.664h2.633v-18.264h8.485v18.264H219.251z M209.313,105.849v5.268h7.146v-5.268H209.313z M209.313,117.237h7.146    v-5.455h-7.146V117.237z M209.313,123.446h7.146v-5.543h-7.146V123.446z"
   fill="#FFFFFF" />
	</g>
</g>
<g
   display="none"
   id="图层_1_x5F_复制">
	<path
   id="path3743"
   d="M8.56-2"
   stroke-miterlimit="10"
   stroke="#FFFFFF"
   fill="none"
   display="inline" />
	<g
   id="g3809"
   display="inline">
		<g
   id="g3767">
			<polygon
   id="polygon3745"
   points="2.877,6.128 6.022,10.4 6.897,9.525 6.421,0 4.675,0    " />
			<polygon
   id="polygon3747"
   points="7.617,4.145 11.15,0 7.41,0    " />
			<polygon
   id="polygon3749"
   points="17.12,10.213 7.605,10.213 3.62,14.198 17.12,11.06    " />
			<polygon
   id="polygon3751"
   points="0,3.886 0,16.422 5.316,11.106 1.794,6.323 1.791,6.322 1.792,6.32    " />
			<polygon
   id="polygon3753"
   points="12.447,0 7.688,5.582 7.839,8.583 16.422,0    " />
			<polygon
   id="polygon3755"
   points="8.593,9.225 17.12,9.225 17.12,7.626 10.842,6.976    " />
			<polygon
   id="polygon3757"
   points="2.141,5.128 3.646,0 0,0 0,2.22    " />
			<polygon
   id="polygon3759"
   points="13.145,12.997 2.607,15.447 2.563,15.255 0.698,17.12 17.12,17.12 17.12,14.911    " />
			<polygon
   id="polygon3761"
   points="17.12,4.141 17.12,0.698 11.742,6.076 13.371,6.245 13.349,6.206    " />
			<polygon
   id="polygon3763"
   points="15.022,6.416 17.12,6.633 17.12,5.266    " />
			<polygon
   id="polygon3765"
   points="17.12,12.073 14.68,12.64 17.12,13.814    " />
		</g>
		<g
   id="g3807">
			<rect
   id="rect3769"
   height="16.016"
   width="36.67"
   fill="none"
   y="1.104"
   x="19.33" />
			<path
   id="path3771"
   d="M21.397,1.32c-0.004,0.118-0.008,0.304-0.024,0.533c0.056,0.368,0.292,2.245,1.723,2.885     c-0.027,0.016-0.067,0.059-0.083,0.091c-1.173-0.538-1.553-1.885-1.688-2.597c-0.13,0.87-0.518,2.04-1.688,2.604     c-0.016-0.028-0.055-0.063-0.083-0.083c1.688-0.798,1.715-2.893,1.723-3.434H21.397z" />
			<path
   id="path3773"
   d="M24.766,1.525c-0.126,0.316-0.289,0.695-0.442,1.02c0.336,0.344,0.419,0.64,0.419,0.901c0,0.17-0.04,0.336-0.135,0.403     C24.56,3.88,24.497,3.9,24.422,3.908c-0.087,0.008-0.189,0.008-0.276,0c-0.004-0.032-0.02-0.079-0.044-0.115     c0.111,0.008,0.214,0.012,0.289,0.004c0.056-0.004,0.103-0.016,0.139-0.04c0.075-0.051,0.099-0.186,0.099-0.312     c0-0.245-0.095-0.534-0.438-0.885c0.158-0.332,0.312-0.684,0.418-0.968H23.81v3.276h-0.115V1.478h0.972l0.02-0.008L24.766,1.525z      M25.418,3.26c-0.126,0.454-0.332,0.893-0.558,1.186c-0.016-0.016-0.071-0.051-0.103-0.067c0.237-0.289,0.427-0.708,0.542-1.138     L25.418,3.26z M27.006,2.604v0.115h-1.047v1.937c0,0.106-0.032,0.146-0.115,0.17c-0.087,0.023-0.257,0.023-0.545,0.023     c-0.008-0.035-0.028-0.079-0.047-0.118c0.253,0.008,0.455,0.004,0.51,0c0.063-0.004,0.079-0.02,0.079-0.075V2.719h-0.917V2.604     H27.006z M26.793,1.774h-1.707V1.66h1.707V1.774z M26.473,3.236c0.202,0.372,0.415,0.866,0.498,1.162l-0.123,0.036     c-0.075-0.292-0.285-0.794-0.486-1.174L26.473,3.236z" />
			<path
   id="path3775"
   d="M27.668,2.13h0.115v2.739h-0.115V2.13z M27.814,1.379C28,1.533,28.213,1.758,28.313,1.905l-0.095,0.067     c-0.095-0.15-0.308-0.375-0.494-0.538L27.814,1.379z M28.514,2.45h1.364v1.711h-1.364V2.45z M28.628,3.244h1.134v-0.68h-1.134     V3.244z M28.628,4.046h1.134V3.359h-1.134V4.046z M30.735,4.651c0,0.11-0.028,0.154-0.103,0.178     c-0.079,0.023-0.229,0.023-0.466,0.023c-0.012-0.031-0.032-0.087-0.052-0.126c0.206,0.008,0.384,0.004,0.435,0.004     c0.055-0.004,0.071-0.02,0.071-0.075V1.664h-1.952V1.549h2.067V4.651z" />
			<path
   id="path3777"
   d="M32.697,4.027c0.012,0.028,0.032,0.071,0.043,0.091c-0.628,0.435-0.708,0.494-0.755,0.553     c-0.012-0.032-0.043-0.087-0.063-0.119c0.035-0.02,0.099-0.067,0.099-0.213v-1.66h-0.628V2.564h0.743v1.83L32.697,4.027z      M32.223,2.126c-0.126-0.158-0.368-0.415-0.577-0.597l0.083-0.071c0.206,0.178,0.458,0.419,0.573,0.577L32.223,2.126z      M34.922,3.003v0.114h-2.458V3.003h0.672c0.056-0.194,0.123-0.455,0.186-0.724h-0.573V2.166h0.597     c0.048-0.206,0.095-0.411,0.13-0.589h-0.873V1.462h2.181v0.115h-1.186c-0.035,0.182-0.079,0.387-0.126,0.589h0.941l0.023-0.012     l0.079,0.016c-0.028,0.241-0.063,0.573-0.106,0.834H34.922z M32.831,3.541h1.81v1.308h-0.115V4.683h-1.581v0.178h-0.115V3.541z      M32.946,3.655v0.913h1.581V3.655H32.946z M33.44,2.28c-0.063,0.269-0.126,0.53-0.182,0.724h1.04     c0.036-0.226,0.067-0.522,0.095-0.724H33.44z" />
			<path
   id="path3779"
   d="M38.864,1.952v0.114h-3.49V1.952H38.864z M35.947,3.651h2.32v1.197h-0.114V4.659h-2.091v0.202h-0.115V3.651z      M38.223,2.604h-2.249V2.489h2.249V2.604z M35.975,3.059h2.249v0.115h-2.249V3.059z M36.062,3.766v0.778h2.091V3.766H36.062z      M37.279,1.9c-0.083-0.15-0.277-0.375-0.447-0.537l0.099-0.056c0.17,0.158,0.359,0.379,0.446,0.53L37.279,1.9z" />
			<path
   id="path3781"
   d="M41.845,2.912c-0.158,0.439-0.392,0.787-0.684,1.067c0.439,0.372,1.008,0.62,1.692,0.735     C42.825,4.742,42.79,4.79,42.77,4.825c-0.684-0.13-1.257-0.387-1.7-0.767c-0.442,0.387-1.023,0.64-1.719,0.818     c-0.012-0.032-0.051-0.083-0.079-0.115c0.699-0.154,1.272-0.399,1.711-0.778c-0.3-0.285-0.538-0.632-0.699-1.043l0.106-0.043     c0.154,0.391,0.383,0.731,0.68,1.004c0.289-0.269,0.506-0.609,0.656-1.023L41.845,2.912z M42.722,2.007h-3.351V1.893h3.351V2.007     z M40.529,2.264c-0.265,0.336-0.672,0.684-1.012,0.917c-0.02-0.024-0.063-0.075-0.091-0.099c0.344-0.213,0.743-0.545,0.996-0.861     L40.529,2.264z M41.09,1.81c-0.051-0.134-0.178-0.344-0.292-0.498L40.9,1.272c0.119,0.15,0.245,0.359,0.3,0.49L41.09,1.81z      M41.695,2.236c0.379,0.253,0.818,0.621,1.032,0.874l-0.095,0.079c-0.206-0.257-0.64-0.632-1.023-0.889L41.695,2.236z" />
			<path
   id="path3783"
   d="M43.925,2.96c-0.154-0.139-0.45-0.328-0.703-0.451l0.071-0.079c0.253,0.115,0.549,0.296,0.7,0.427L43.925,2.96z      M44.186,3.497c-0.209,0.419-0.51,0.953-0.739,1.304l-0.099-0.079c0.213-0.312,0.533-0.861,0.755-1.3L44.186,3.497z      M44.048,1.983c-0.134-0.158-0.403-0.391-0.632-0.553l0.083-0.067c0.229,0.154,0.498,0.383,0.628,0.537L44.048,1.983z      M44.625,3.13h0.115v0.446c0,0.435-0.06,0.913-0.593,1.285c-0.016-0.028-0.056-0.063-0.087-0.083     c0.514-0.348,0.565-0.806,0.565-1.202V3.13z M46.597,3.086c-0.052-0.087-0.135-0.198-0.229-0.313     c-1.763,0.115-1.909,0.126-2,0.162c-0.008-0.036-0.032-0.099-0.043-0.13c0.059-0.016,0.15-0.036,0.213-0.099     c0.095-0.087,0.427-0.506,0.597-0.735h-0.877V1.857h1.225c-0.051-0.154-0.13-0.359-0.213-0.518l0.103-0.028     c0.087,0.17,0.186,0.396,0.233,0.545h1.146v0.115h-1.466c-0.17,0.229-0.451,0.589-0.628,0.791l1.628-0.103     c-0.13-0.158-0.28-0.324-0.415-0.462l0.095-0.055C46.233,2.415,46.55,2.79,46.7,3.023L46.597,3.086z M45.356,3.142h0.115v1.553     h-0.115V3.142z M46.506,4.691c0.048,0,0.091-0.004,0.115-0.02c0.024-0.016,0.043-0.051,0.056-0.11     c0.008-0.067,0.012-0.218,0.016-0.419c0.028,0.023,0.059,0.04,0.095,0.051c-0.004,0.17-0.012,0.379-0.028,0.438     c-0.012,0.067-0.035,0.107-0.079,0.13c-0.036,0.02-0.103,0.032-0.158,0.032h-0.186c-0.059,0-0.13-0.012-0.17-0.04     c-0.047-0.032-0.059-0.075-0.059-0.289V3.13h0.115v1.383c0,0.095,0.004,0.143,0.031,0.162c0.02,0.012,0.056,0.016,0.087,0.016     H46.506z" />
			<path
   id="path3785"
   d="M48.144,1.324c-0.067,0.197-0.146,0.435-0.217,0.604h0.707v2.506h-1.146v0.34h-0.115V1.928h0.435     c0.075-0.178,0.17-0.458,0.209-0.644L48.144,1.324z M48.52,2.043h-1.032V3.07h1.032V2.043z M48.52,4.319V3.185h-1.032v1.134     H48.52z M50.582,2.023c-0.067,1.854-0.13,2.45-0.284,2.628c-0.067,0.079-0.139,0.103-0.253,0.106     c-0.119,0.004-0.344-0.004-0.557-0.02c-0.008-0.04-0.016-0.087-0.04-0.119c0.261,0.02,0.498,0.024,0.581,0.024     c0.079,0,0.126-0.008,0.162-0.06c0.134-0.142,0.206-0.763,0.273-2.533h-1.186c-0.111,0.296-0.241,0.557-0.392,0.767     c-0.02-0.016-0.075-0.047-0.106-0.059c0.28-0.372,0.486-0.921,0.608-1.494l0.119,0.024c-0.051,0.225-0.115,0.442-0.186,0.648     h1.26V2.023z M49.883,3.77c-0.13-0.241-0.415-0.64-0.664-0.925l0.095-0.055c0.249,0.288,0.538,0.676,0.668,0.913L49.883,3.77z" />
			<path
   id="path3787"
   d="M21.115,10.252c0,0.272-0.035,0.45-0.193,0.554c-0.158,0.108-0.356,0.124-0.633,0.124     c-0.015-0.168-0.099-0.455-0.178-0.618c0.138,0.01,0.287,0.01,0.341,0.01c0.055,0,0.069-0.02,0.069-0.079V9.328H20.23     c-0.044,0.593-0.144,1.216-0.336,1.666c-0.104-0.119-0.375-0.341-0.509-0.41c0.252-0.647,0.267-1.602,0.267-2.299V6.456h1.463     V10.252z M20.521,8.734V8.196H20.27V8.28c0,0.138,0,0.292-0.005,0.455H20.521z M20.27,7.004v0.618h0.252V7.004H20.27z      M24.066,7.592h-2.853V6.92h1.038c-0.074-0.148-0.163-0.306-0.237-0.44l0.643-0.217c0.128,0.198,0.282,0.455,0.381,0.657h1.028     V7.592z M22.242,7.988c0.104,0.104,0.212,0.218,0.321,0.336c0.089-0.232,0.168-0.479,0.228-0.732l0.588,0.134L23.345,7.85h0.613     v3.115h-0.653v-0.164h-2.012V7.845h0.657v0.371L22.242,7.988z M21.95,9.392c0.119-0.144,0.232-0.307,0.332-0.484     c-0.109-0.134-0.223-0.267-0.332-0.391V9.392z M23.305,10.139v-0.46l-0.311,0.252c-0.074-0.148-0.183-0.321-0.316-0.509     c-0.144,0.237-0.297,0.45-0.465,0.628c-0.054-0.074-0.158-0.203-0.262-0.312v0.4H23.305z M23.305,7.983     c-0.089,0.287-0.192,0.569-0.311,0.835c0.114,0.139,0.217,0.272,0.311,0.4V7.983z" />
			<path
   id="path3789"
   d="M25.354,8.769c-0.203-0.143-0.643-0.38-0.934-0.534l0.386-0.534c0.272,0.124,0.727,0.336,0.949,0.47L25.354,8.769z      M24.47,10.435c0.262-0.366,0.638-0.964,0.939-1.542l0.529,0.479c-0.262,0.52-0.559,1.053-0.86,1.548L24.47,10.435z      M25.547,7.405c-0.193-0.144-0.618-0.381-0.89-0.544l0.405-0.519c0.262,0.133,0.697,0.351,0.91,0.484L25.547,7.405z      M27.871,8.398v0.524h0.999v2.027h-0.682v-0.178h-1.335v0.198h-0.647V8.922h0.984V8.398h-1.266V7.711h1.266V7.256     c-0.302,0.044-0.608,0.079-0.9,0.104c-0.024-0.173-0.119-0.455-0.193-0.613c0.831-0.079,1.716-0.247,2.264-0.479l0.549,0.563     c-0.316,0.124-0.667,0.228-1.038,0.302v0.578h1.207v0.688H27.871z M28.188,9.57h-1.335v0.554h1.335V9.57z" />
			<path
   id="path3791"
   d="M33.931,7.315c0,0-0.005,0.228-0.005,0.312c-0.044,1.987-0.089,2.729-0.252,2.966c-0.133,0.193-0.257,0.252-0.44,0.292     c-0.163,0.035-0.405,0.035-0.653,0.029c-0.015-0.193-0.089-0.469-0.198-0.667c-0.128,0.267-0.296,0.509-0.504,0.722     c-0.114-0.183-0.346-0.44-0.529-0.559c0.124-0.124,0.232-0.257,0.321-0.406l-0.44,0.139c-0.01-0.055-0.02-0.114-0.04-0.178     c-1.152,0.327-1.379,0.411-1.532,0.509v-0.02c-0.005,0.01-0.005,0.015-0.005,0.02c-0.035-0.133-0.148-0.459-0.227-0.633     c0.104-0.04,0.178-0.143,0.257-0.321c0.06-0.138,0.213-0.598,0.316-1.093h-0.578V7.78h2.205v0.647h-0.89     c-0.094,0.371-0.228,0.757-0.371,1.103l0.653-0.163c-0.06-0.183-0.128-0.366-0.193-0.529l0.574-0.158     c0.148,0.331,0.306,0.756,0.4,1.083c0.222-0.484,0.306-1.068,0.336-1.76h-0.45V7.315h0.464c0.005-0.301,0.005-0.618,0.005-0.949     h0.712c0,0.327,0,0.643-0.005,0.949H33.931z M31.542,7.276H29.58V6.648h1.962V7.276z M32.838,8.003     c-0.044,0.86-0.153,1.606-0.44,2.215c0.198,0.015,0.366,0.015,0.47,0.015c0.079,0,0.124-0.02,0.178-0.089     c0.099-0.128,0.139-0.707,0.173-2.141H32.838z" />
			<path
   id="path3793"
   d="M38.759,10.178c0,0.351-0.064,0.549-0.277,0.663c-0.213,0.118-0.5,0.138-0.91,0.138     c-0.025-0.198-0.134-0.529-0.237-0.712c0.232,0.015,0.519,0.015,0.603,0.015c0.084-0.005,0.114-0.035,0.114-0.114V7.177h-2.877     v3.797h-0.697V6.5h4.281V10.178z M37.829,8.032h-2.452V7.434h2.452V8.032z M36.257,10.044v0.312H35.6V8.329h2.037v1.715H36.257z      M36.257,8.913v0.543h0.717V8.913H36.257z" />
			<path
   id="path3795"
   d="M41.99,8.334v1.167c0.385-0.262,0.697-0.593,0.924-1.033l0.707,0.321c-0.796,1.414-2.116,1.923-3.98,2.19     c-0.064-0.208-0.212-0.495-0.361-0.682c0.915-0.104,1.696-0.267,2.329-0.579h-0.391V8.334h-1.918V7.657h0.643V6.564h0.731v1.093     h0.638V6.277h0.776v0.321h1.414v0.672h-1.414v0.386h1.71v0.677H41.99z M41.021,8.675c-0.287,0.435-0.747,0.885-1.147,1.157     c-0.119-0.139-0.381-0.41-0.534-0.534c0.375-0.203,0.771-0.534,0.989-0.865L41.021,8.675z" />
			<path
   id="path3797"
   d="M48.307,10.242c0.015,0,0.029-0.005,0.039-0.024c0.015-0.025,0.02-0.069,0.025-0.173c0.005-0.104,0.01-0.331,0.01-0.608     c0.134,0.109,0.336,0.223,0.509,0.282c-0.005,0.262-0.029,0.603-0.064,0.756c-0.03,0.153-0.084,0.257-0.173,0.326     c-0.084,0.074-0.212,0.099-0.331,0.099h-0.287c-0.129,0-0.287-0.049-0.381-0.153c-0.099-0.114-0.144-0.247-0.144-0.677V7.241     h-0.484v0.935c0,0.851-0.124,2.101-0.855,2.808c-0.109-0.133-0.391-0.371-0.559-0.47v0.465h-0.717V9.357     c-0.128,0.302-0.272,0.579-0.43,0.796c-0.069-0.212-0.237-0.489-0.351-0.667c0.306-0.43,0.578-1.068,0.722-1.617h-0.618V7.187     h0.677V6.282h0.717v0.905h0.5v0.682h-0.5v0.094c0.164,0.168,0.559,0.613,0.667,0.742c0.01-0.188,0.015-0.366,0.015-0.534V6.564     h1.933v3.461c0,0.114,0,0.168,0.005,0.188c0.01,0.02,0.02,0.029,0.034,0.029H48.307z M45.612,10.484     c0.48-0.479,0.623-1.137,0.667-1.745l-0.351,0.678c-0.079-0.158-0.198-0.356-0.316-0.549V10.484z" />
			<path
   id="path3799"
   d="M50.875,7.84h1.018v0.647h-1.018v0.272h0.934v1.216c0,0.262-0.034,0.43-0.192,0.534     c-0.158,0.099-0.346,0.109-0.578,0.104c-0.016-0.173-0.09-0.425-0.164-0.593v0.949h-0.683V9.397h-0.272v1.187h-0.638V8.759h0.91     V8.487H49.11V7.84h0.391c-0.158-0.074-0.371-0.158-0.5-0.203c0.193-0.311,0.351-0.815,0.43-1.28l0.658,0.134     c-0.03,0.138-0.06,0.276-0.099,0.415h0.203V6.317h0.683v0.588h0.826v0.647h-0.826V7.84z M50.193,7.84V7.553h-0.415     c-0.04,0.104-0.084,0.203-0.124,0.287H50.193z M50.875,9.397v0.613c0.094,0.005,0.198,0.005,0.238,0.005     c0.039,0,0.054-0.01,0.054-0.055V9.397H50.875z M52.705,9.491h-0.668V6.663h0.668V9.491z M53.619,6.381v3.787     c0,0.361-0.064,0.549-0.262,0.667c-0.203,0.114-0.5,0.139-0.891,0.139c-0.024-0.198-0.123-0.514-0.212-0.717     c0.237,0.01,0.484,0.01,0.568,0.01c0.079,0,0.108-0.025,0.108-0.104V6.381H53.619z" />
			<path
   id="path3801"
   d="M20.393,14.944c0.012,0.024,0.027,0.054,0.033,0.065c-0.459,0.376-0.515,0.42-0.539,0.462     c-0.015-0.021-0.044-0.054-0.068-0.071c0.044-0.033,0.142-0.121,0.142-0.251v-1.137h-0.477v-0.086h0.563v1.282L20.393,14.944z      M20.073,13.533c-0.083-0.11-0.252-0.287-0.397-0.412l0.063-0.056c0.145,0.121,0.313,0.293,0.396,0.399L20.073,13.533z      M21.367,14.643c0.198,0.302,0.53,0.622,0.799,0.772c-0.024,0.018-0.047,0.044-0.065,0.068c-0.278-0.172-0.627-0.521-0.826-0.841     h-0.009v1.009H21.18v-1.009h-0.012c-0.201,0.358-0.571,0.705-0.894,0.876c-0.015-0.024-0.042-0.053-0.062-0.071     c0.316-0.145,0.672-0.474,0.87-0.805h-0.761v-0.086h0.858v-0.337h-0.678v-1.101h1.4v1.101h-0.636v0.337h0.87v0.086H21.367z      M20.588,13.625h0.592v-0.42h-0.592V13.625z M20.588,14.133h0.592V13.71h-0.592V14.133z M21.816,13.204h-0.55v0.42h0.55V13.204z      M21.816,13.71h-0.55v0.423h0.55V13.71z" />
			<path
   id="path3803"
   d="M25.104,15.489c-0.018,0.027-0.035,0.062-0.041,0.089h-0.77c-0.71,0-1.229-0.08-1.516-0.539     c-0.05,0.243-0.133,0.441-0.269,0.601c-0.015-0.015-0.054-0.042-0.077-0.056c0.222-0.234,0.293-0.592,0.317-1.042l0.088,0.006     c-0.009,0.136-0.021,0.264-0.041,0.379c0.077,0.145,0.177,0.251,0.302,0.332v-0.906h-0.646v-0.086h1.335v0.086h-0.604v0.394     h0.557v0.086h-0.557v0.479c0.284,0.148,0.666,0.178,1.113,0.178H25.104z M23.613,13.994h-0.947v-0.876h0.947V13.994z      M23.527,13.204h-0.775v0.308h0.775V13.204z M23.527,13.598h-0.775v0.311h0.775V13.598z M24.48,13.832     c-0.026,0.87-0.121,1.309-0.764,1.54c-0.012-0.018-0.039-0.048-0.059-0.063c0.63-0.216,0.713-0.642,0.737-1.477H24.48z      M24.252,13.577c0.036-0.101,0.077-0.252,0.101-0.358h-0.568v-0.086h1.309v0.086h-0.646c-0.032,0.122-0.071,0.261-0.109,0.358     h0.58v1.249h-0.092v-1.164h-0.808v1.164H23.93v-1.249H24.252z M25.004,15.327c-0.115-0.136-0.349-0.344-0.553-0.486l0.065-0.044     c0.198,0.139,0.438,0.341,0.557,0.477L25.004,15.327z" />
			<path
   id="path3805"
   d="M26.418,14.56c0,0.027,0.006,0.06,0.009,0.08c-0.838,0.178-0.924,0.198-0.971,0.225     c-0.006-0.021-0.021-0.071-0.035-0.098c0.053-0.012,0.136-0.089,0.233-0.198c0.068-0.074,0.243-0.275,0.42-0.518     c-0.53,0.077-0.601,0.092-0.636,0.112c-0.006-0.023-0.021-0.074-0.033-0.098c0.047-0.009,0.104-0.089,0.175-0.192     c0.077-0.104,0.332-0.506,0.488-0.879l0.092,0.042c-0.175,0.361-0.382,0.729-0.589,0.998l0.571-0.074     c0.074-0.107,0.154-0.219,0.219-0.332l0.089,0.042c-0.257,0.391-0.539,0.761-0.82,1.048L26.418,14.56z M26.436,15.172     c-0.364,0.092-0.737,0.181-1.006,0.249l-0.021-0.092c0.252-0.053,0.637-0.148,1.021-0.237L26.436,15.172z M28.067,15.492v0.086     h-1.711v-0.086h0.34v-2.359h1.096v2.359H28.067z M26.782,13.219v0.681h0.924v-0.681H26.782z M26.782,14.69h0.924v-0.705h-0.924     V14.69z M26.782,15.492h0.924v-0.716h-0.924V15.492z" />
		</g>
	</g>
</g>
<g
   display="none"
   id="图层_2">
	<rect
   id="rect3812"
   height="17.338"
   width="17.338"
   display="inline"
   y="41.832"
   x="36.199" />
	<line
   id="line3814"
   y2="41.832"
   x2="53.537"
   y1="59.17"
   x1="36.199"
   stroke-miterlimit="10"
   stroke="#FFFFFF"
   fill="none"
   display="inline" />
	<line
   id="line3816"
   y2="53.129"
   x2="55.328"
   y1="56.988"
   x1="38.727"
   stroke-miterlimit="10"
   stroke="#FFFFFF"
   fill="none"
   display="inline" />
	<line
   id="line3818"
   y2="42.951"
   x2="34.746"
   y1="53.129"
   x1="42.24"
   stroke-miterlimit="10"
   stroke="#FFFFFF"
   fill="none"
   display="inline" />
	<line
   id="line3820"
   y2="49.55"
   x2="58.348"
   y1="48.375"
   x1="46.994"
   stroke-miterlimit="10"
   stroke="#FFFFFF"
   fill="none"
   display="inline" />
	<line
   id="line3822"
   y2="40.938"
   x2="40.675"
   y1="48.375"
   x1="38.493"
   stroke-miterlimit="10"
   stroke="#FFFFFF"
   fill="none"
   display="inline" />
	<line
   id="line3824"
   y2="48.556"
   x2="49.958"
   y1="44.389"
   x1="57.565"
   stroke-miterlimit="10"
   stroke="#FFFFFF"
   fill="none"
   display="inline" />
	<polyline
   id="polyline3826"
   points="43.135,40.49 43.387,45.527    43.694,51.675 56.781,51.675  "
   stroke-miterlimit="10"
   stroke="#FFFFFF"
   fill="none"
   display="inline" />
	<line
   id="line3828"
   y2="57.939"
   x2="56.781"
   y1="54.468"
   x1="49.57"
   stroke-miterlimit="10"
   stroke="#FFFFFF"
   fill="none"
   display="inline" />
	<polyline
   id="polyline3830"
   points="49.958,39.707 46.307,43.991    43.476,47.313  "
   stroke-miterlimit="10"
   stroke="#FFFFFF"
   fill="none"
   display="inline" />
	<path
   id="path3832"
   d="M44.868,39.707"
   stroke-miterlimit="10"
   stroke="#FFFFFF"
   fill="none"
   display="inline" />
</g>
</svg>