<?xml version="1.0" encoding="utf-8"?>
<!-- Generator: Adobe Illustrator 16.0.0, SVG Export Plug-In . SVG Version: 6.00 Build 0)  -->
<!DOCTYPE svg PUBLIC "-//W3C//DTD SVG 1.0//EN" "http://www.w3.org/TR/2001/REC-SVG-20010904/DTD/svg10.dtd">
<svg version="1.0" id="图层_1" xmlns="http://www.w3.org/2000/svg" xmlns:xlink="http://www.w3.org/1999/xlink" x="0px" y="0px"
	 width="50px" height="50px" viewBox="0 0 50 50" enable-background="new 0 0 50 50" xml:space="preserve">
<path fill="#595757" stroke="#595757" stroke-miterlimit="10" d="M39.619,33.081l-0.845-0.323c-1.137,3.631-3.57,6.13-7.498,6.13
	h-9.281c-2.01,0-2.119-0.909-2.119-3.81V25.045h9.188c2.974,0,3.959,1.412,4.225,4.441h0.845V18.823h-0.845
	c-0.308,3.087-1.204,4.333-4.225,4.333h-9.188V14.29c0-2.681-0.063-3.18,1.904-3.18h8.343c3.624,0,5.443,1.103,5.915,4.962h0.938
	l-0.414-6.959H10.381v0.952c3.493,0,4.749,0.761,4.749,4.532v20.804c0,3.771-1.256,4.533-4.749,4.533v0.952h26.811L39.619,33.081z"
	/>
</svg>
