<?xml version="1.0" encoding="utf-8"?>
<!-- Generator: Adobe Illustrator 16.0.0, SVG Export Plug-In . SVG Version: 6.00 Build 0)  -->
<!DOCTYPE svg PUBLIC "-//W3C//DTD SVG 1.1//EN" "http://www.w3.org/Graphics/SVG/1.1/DTD/svg11.dtd">
<svg version="1.1" id="图层_1" xmlns="http://www.w3.org/2000/svg" xmlns:xlink="http://www.w3.org/1999/xlink" x="0px" y="0px"
	 width="50px" height="50px" viewBox="0 0 50 50" enable-background="new 0 0 50 50" xml:space="preserve">
<path fill-rule="evenodd" clip-rule="evenodd" fill="#595757" stroke="#595757" stroke-linecap="round" stroke-linejoin="round" stroke-miterlimit="10" d="
	M49.061,7.83c-0.268,0.45-0.455,1.205-0.816,1.299c-2.302,0.606-2.557,2.295-2.551,4.26c0.021,6.751,0.024,13.503-0.042,20.254
	c-0.009,0.928,0.038,2.777,0.038,2.777s-0.329,1.49-3.036-1.809c-5.255-6.03-10.459-12.105-15.685-18.162
	c-0.447-0.519-0.924-1.019-1.428-1.482c-0.506-0.465-1.103-0.652-1.076,0.331c0.155,5.704,0.367,11.406,0.554,17.109
	c0.052,1.611,1.064,2.101,2.47,2.275c0.363,0.045,0.701,0.817,0.701,0.817l-0.965,0.7c0,0-4.805-0.092-7.206-0.145
	c-0.293-0.007-0.58-0.268-0.871-0.41c0.234-0.325,0.425-0.885,0.709-0.938c1.906-0.351,2.273-1.713,2.28-3.306
	c0.029-6.18,0.008-12.358,0.063-18.538c0.016-1.717-0.647-2.849-2.282-3.39c-0.845-0.28-1.894-0.336-1.791-1.646
	c2.521,0,5.041,0,7.562,0c0.735,1.271,1.305,2.683,2.237,3.788c3.393,4.019,6.905,7.936,10.374,11.89
	c1.357,1.546,2.698,3.108,4.096,4.617c0.485,0.522,1.04,0.58,1.032-0.38c-0.039-4.69-0.008-9.384-0.199-14.069
	c-0.092-2.297-0.525-4.617-3.646-4.81c-0.298-0.019-0.557-0.675-0.832-1.036C42.187,7.83,45.623,7.83,49.061,7.83z"/>
<path fill-rule="evenodd" clip-rule="evenodd" fill="#595757" stroke="#595757" stroke-linecap="round" stroke-linejoin="round" stroke-miterlimit="10" d="
	M0.939,42.202c1.199-0.18,2.407-0.55,3.596-0.497c2.101,0.093,2.83-0.198,3.123-2.102c0.347-2.253,0.668-4.532,0.704-6.805
	c0.098-6.179,0.015-12.359,0.055-18.538c0.017-2.571-0.23-4.859-3.465-5.306C4.714,8.922,4.567,8.22,4.377,7.83
	c3.667,0,7.333,0,10.999,0c-0.078,0.326-0.087,0.896-0.245,0.94c-2.61,0.742-2.598,2.76-2.566,4.903
	c0.062,4.117,0.094,8.237-0.008,12.354c-0.082,3.306-0.256,6.62-0.613,9.907c-0.497,4.582-3.929,8.089-8.382,8.695
	c-0.842,0.114-1.747-0.231-2.623-0.365C0.939,43.576,0.939,42.89,0.939,42.202z"/>
</svg>
