<?xml version="1.0" encoding="utf-8"?>
<!-- Generator: Adobe Illustrator 16.0.0, SVG Export Plug-In . SVG Version: 6.00 Build 0)  -->
<!DOCTYPE svg PUBLIC "-//W3C//DTD SVG 1.1//EN" "http://www.w3.org/Graphics/SVG/1.1/DTD/svg11.dtd">
<svg version="1.1" id="图层_1" xmlns="http://www.w3.org/2000/svg" xmlns:xlink="http://www.w3.org/1999/xlink" x="0px" y="0px"
	 width="50px" height="50px" viewBox="0 0 50 50" enable-background="new 0 0 50 50" xml:space="preserve">
<path fill="#595757" d="M41.183,11.019c1.847,0.571,3.805-0.464,4.376-2.31c0.571-1.846-0.464-3.804-2.31-4.375
	c-1.846-0.57-3.806,0.463-4.376,2.308c0,0.004-0.002,0.007-0.002,0.011c-0.565,1.846,0.466,3.804,2.312,4.378"/>
<path fill="#595757" d="M49.416,28.426c0.286-0.924-0.229-1.902-1.148-2.191c-0.925-0.286-1.905,0.229-2.191,1.148
	c-0.288,0.926,0.226,1.904,1.149,2.191c0,0,0,0,0.001,0C48.148,29.857,49.121,29.346,49.416,28.426"/>
<path fill="#595757" d="M30.538,3.948c0.923,0.287,1.904-0.229,2.192-1.15c0.286-0.922-0.227-1.904-1.151-2.19
	c-0.921-0.289-1.903,0.227-2.188,1.148v0.002C29.103,2.679,29.617,3.66,30.538,3.948"/>
<path fill="#595757" d="M6.402,34.273c-0.92-0.287-1.902,0.229-2.19,1.15c-0.289,0.924,0.227,1.904,1.15,2.189
	c0.921,0.287,1.904-0.227,2.19-1.148c0,0,0,0,0-0.002C7.833,35.541,7.321,34.566,6.402,34.273"/>
<path fill="#595757" d="M36.89,42.396c-1.203-0.363-2.474,0.314-2.839,1.518c-0.363,1.199,0.313,2.469,1.516,2.84
	c1.203,0.361,2.474-0.316,2.838-1.521c0.367-1.191-0.298-2.463-1.493-2.836"/>
<path fill="#595757" d="M13.938,8.083c0.468-1.476-0.352-3.051-1.826-3.517c-1.476-0.466-3.048,0.353-3.516,1.829
	c-0.465,1.474,0.352,3.049,1.828,3.514c0.022,0.007,0.043,0.014,0.066,0.021C11.949,10.353,13.481,9.532,13.938,8.083"/>
<path fill="#595757" d="M19.933,43.998c-1.475-0.463-3.049,0.355-3.513,1.834c-0.466,1.475,0.354,3.047,1.83,3.51
	c1.476,0.465,3.049-0.352,3.514-1.828c0.003-0.004,0.004-0.01,0.005-0.02c0.46-1.465-0.357-3.033-1.827-3.492
	C19.939,44.002,19.936,44.002,19.933,43.998"/>
<path fill="#595757" d="M3.211,16.963c-1.104-0.337-2.273,0.284-2.613,1.388c-0.337,1.105,0.283,2.274,1.389,2.614
	c1.098,0.336,2.261-0.278,2.607-1.37C4.935,18.485,4.318,17.31,3.211,16.963"/>
<path fill="#595757" d="M39.164,16.059c-2.277-3.648-5.877-6.277-10.044-7.34h-0.074l0,0c-1.34-0.331-2.716-0.5-4.097-0.501
	c-9.27,0.013-16.773,7.54-16.76,16.808c0.013,9.271,7.538,16.772,16.808,16.759c9.269-0.012,16.773-7.535,16.76-16.808
	c-0.005-3.154-0.899-6.248-2.582-8.917 M32.718,37.309c-2.008,1.246-4.286,1.988-6.643,2.152c2.235-2.027,3.977-4.535,5.09-7.34l0,0
	c0.463-0.197,0.915-0.404,1.367-0.625c0.454-0.219,0.894-0.453,1.322-0.695c0.428-0.246,0.856-0.49,1.225-0.758
	c0.367-0.27,0.721-0.492,1.039-0.738c0.086,0.297,0.158,0.59,0.218,0.869c0.063,0.281,0.123,0.709,0.161,1.041
	c0.021,0.322,0.021,0.645,0,0.969c-0.002,0.281-0.025,0.564-0.073,0.84c-0.035,0.25-0.094,0.496-0.172,0.736
	c-0.318,1.016-2.042,2.566-3.669,3.57 M12.716,32.865c0.182,0.1,0.354,0.211,0.549,0.297c0.367,0.164,0.744,0.314,1.125,0.441
	c0.379,0.117,0.783,0.244,1.224,0.328c0.441,0.088,0.538,0.109,0.82,0.158c0.216,1.172,0.586,2.314,1.1,3.391
	C15.592,36.334,13.942,34.758,12.716,32.865 M18.343,13.441c0.316,0.01,0.631,0.04,0.942,0.086c0.33,0,0.672,0.109,1.015,0.195
	c0.344,0.084,0.588,0.171,0.882,0.257c-0.987,1.371-1.834,2.839-2.532,4.38c-1.362,3.035-2.213,6.277-2.521,9.59
	c-0.155,1.527-0.155,3.061,0,4.588h-0.246c-0.367-0.084-0.733-0.197-1.062-0.295c-0.334-0.113-0.661-0.242-0.979-0.391
	c-0.296-0.131-0.583-0.283-0.858-0.453c-0.241-0.139-0.47-0.297-0.684-0.477c-0.199-0.154-0.388-0.33-0.563-0.514
	c-0.395-0.518-0.684-1.109-0.844-1.738l0,0c-1.316-5.031,0.184-10.382,3.928-13.993c0.959-0.879,2.237-1.322,3.534-1.223
	 M37.28,17.257c0.47,0.724,0.881,1.484,1.222,2.276c0.162,0.399,0.3,0.808,0.417,1.222c0.109,0.392,0.245,0.784,0.329,1.224
	c0.118,0.516,0.088,1.053-0.084,1.554c-0.08,0.25-0.176,0.493-0.281,0.734c-0.125,0.26-0.265,0.512-0.416,0.758
	c-0.174,0.27-0.362,0.532-0.564,0.785c-0.206,0.268-0.438,0.524-0.659,0.77L36.9,26.91c-0.086-0.197-0.158-0.393-0.244-0.588
	c-0.197-0.417-0.404-0.819-0.624-1.224c-0.221-0.402-0.466-0.806-0.709-1.223c-0.244-0.416-0.526-0.82-0.808-1.224
	c-0.282-0.405-0.442-0.6-0.674-0.893c0.294-3.037-0.062-6.102-1.04-8.992c1.802,1.146,3.325,2.674,4.466,4.478 M24.326,38.041
	c-0.807,0.719-1.859,1.098-2.937,1.051c-1.09-0.303-1.986-1.08-2.447-2.111c-0.423-0.838-0.738-1.719-0.941-2.635h0.221
	c0.452,0,0.905,0.059,1.368,0.072h0.466h0.93c0.477,0,0.965,0,1.431-0.084c0.464-0.086,0.977-0.098,1.479-0.172
	c0.503-0.072,0.979-0.158,1.468-0.256c0.491-0.098,0.98-0.209,1.47-0.33c0.488-0.125,0.88-0.23,1.321-0.367
	c-0.923,1.881-2.227,3.547-3.829,4.895 M17.61,28.107c0.309-3.147,1.137-6.221,2.446-9.1c0.708-1.58,1.585-3.079,2.618-4.466
	c0.354,0.16,0.709,0.318,1.076,0.514c0.367,0.196,0.808,0.43,1.224,0.662c0.415,0.231,0.795,0.489,1.224,0.745
	c0.426,0.258,0.782,0.551,1.221,0.821c0.441,0.269,0.76,0.588,1.124,0.904c0.371,0.317,0.724,0.624,1.078,0.955
	c0.355,0.33,0.698,0.684,1.027,1.015c0.331,0.329,0.661,0.699,0.968,1.051l0,0c0,0.086,0,0.171,0,0.258
	c-0.271,3.127-1.001,6.197-2.164,9.113l-0.308,0.699c-0.379,0.146-0.771,0.268-1.223,0.391c-0.454,0.123-0.93,0.27-1.395,0.393
	l-1.396,0.318l-1.406,0.242c-0.464,0.059-0.917,0.123-1.394,0.158c-0.478,0.039-0.906,0.086-1.371,0.1c-0.466,0.012-0.88,0-1.321,0
	s-0.856,0-1.285-0.061l-0.61-0.074c-0.175-1.561-0.175-3.137,0-4.697 M33.513,23.776c0.17,0.246,0.342,0.491,0.487,0.747
	c0.149,0.256,0.466,0.771,0.675,1.15c0.207,0.379,0.404,0.746,0.586,1.137c0.186,0.391,0.281,0.65,0.416,0.967L35.406,28
	c-0.327,0.242-0.695,0.498-1.086,0.756c-0.393,0.26-0.772,0.477-1.225,0.709c-0.451,0.234-0.806,0.439-1.223,0.648
	C32.62,28.061,33.168,25.937,33.513,23.776 M28.618,10.919c0.891,0.362,1.589,1.081,1.92,1.983c0.791,1.996,1.171,4.13,1.114,6.275
	l0,0c-0.354-0.354-0.709-0.708-1.076-1.051c-0.365-0.344-0.746-0.686-1.139-1.003c-0.392-0.318-0.783-0.648-1.222-0.966
	c-0.441-0.319-0.808-0.588-1.224-0.868c-0.415-0.282-0.831-0.551-1.223-0.797c-0.392-0.243-0.857-0.489-1.286-0.709
	c-0.427-0.22-0.501-0.244-0.758-0.354c0.533-0.576,1.118-1.1,1.749-1.566l0,0c0.875-0.693,1.984-1.021,3.095-0.918h0.085
	 M24.544,10.566L24.544,10.566c-0.9,0.633-1.721,1.374-2.446,2.201l-0.307-0.11c-0.402-0.135-0.805-0.256-1.223-0.354
	c-0.416-0.098-0.783-0.17-1.136-0.22c-0.324-0.049-0.652-0.077-0.979-0.085c1.902-0.948,3.992-1.463,6.116-1.506l-0.158,0.086
	 M37.866,31.07c0-0.383-0.098-0.785-0.184-1.225c-0.086-0.441-0.183-0.783-0.306-1.227c0-0.121-0.086-0.242-0.122-0.363
	c0.282-0.256,0.563-0.525,0.834-0.795c0.268-0.268,0.537-0.588,0.758-0.881c0.219-0.295,0.317-0.441,0.464-0.651
	c-0.132,1.879-0.623,3.715-1.444,5.411c0-0.113,0-0.225,0-0.32"/>
<path fill="#595757" d="M21.816,26.725c0.966-0.006,1.744-0.795,1.738-1.759c-0.007-0.968-0.796-1.746-1.763-1.738
	c-0.965,0.006-1.744,0.795-1.735,1.762c0,0.002,0,0.007,0,0.012c0,0.965,0.783,1.751,1.749,1.751l0,0"/>
</svg>
