<?xml version="1.0" encoding="UTF-8" standalone="no"?>
<!-- Generator: Adobe Illustrator 16.0.0, SVG Export Plug-In . SVG Version: 6.00 Build 0)  -->

<svg
   xmlns:dc="http://purl.org/dc/elements/1.1/"
   xmlns:cc="http://creativecommons.org/ns#"
   xmlns:rdf="http://www.w3.org/1999/02/22-rdf-syntax-ns#"
   xmlns:svg="http://www.w3.org/2000/svg"
   xmlns="http://www.w3.org/2000/svg"
   xmlns:sodipodi="http://sodipodi.sourceforge.net/DTD/sodipodi-0.dtd"
   xmlns:inkscape="http://www.inkscape.org/namespaces/inkscape"
   version="1.1"
   id="图层_1"
   x="0px"
   y="0px"
   width="50px"
   height="50px"
   viewBox="0 0 50 50"
   enable-background="new 0 0 50 50"
   xml:space="preserve"
   sodipodi:docname="PNAS.svg"
   inkscape:version="0.92.1 r15371"><metadata
   id="metadata46"><rdf:RDF><cc:Work
       rdf:about=""><dc:format>image/svg+xml</dc:format><dc:type
         rdf:resource="http://purl.org/dc/dcmitype/StillImage" /><dc:title></dc:title></cc:Work></rdf:RDF></metadata><defs
   id="defs44" /><sodipodi:namedview
   pagecolor="#ffffff"
   bordercolor="#666666"
   borderopacity="1"
   objecttolerance="10"
   gridtolerance="10"
   guidetolerance="10"
   inkscape:pageopacity="0"
   inkscape:pageshadow="2"
   inkscape:window-width="640"
   inkscape:window-height="480"
   id="namedview42"
   showgrid="false"
   inkscape:zoom="4.72"
   inkscape:cx="25"
   inkscape:cy="25"
   inkscape:window-x="0"
   inkscape:window-y="0"
   inkscape:window-maximized="0"
   inkscape:current-layer="图层_1" />
<path
   id="path8"
   connector-curvature="0"
   fill="#595757"
   stroke="#595757"
   stroke-width="0.5"
   stroke-miterlimit="10"
   d="  M16.09,25.994c-0.397,0.198-0.351,0.061-4.602,11.5c-1.194,3.194-2.324,6.087-2.524,6.439c-0.398,0.688-0.887,1.069-1.544,1.207  c-0.917,0.213-0.979,0.246-0.979,0.627v0.367h3.136h3.135v-0.382c0-0.414-0.062-0.459-0.948-0.612  c-0.735-0.122-1.041-0.428-1.041-1.055c0-0.274,0.353-1.574,0.766-2.891l0.779-2.4h3.089h3.104l0.872,2.659  c0.474,1.469,0.872,2.77,0.872,2.892c0,0.336-0.504,0.703-1.163,0.841c-0.505,0.092-0.612,0.185-0.642,0.537l-0.046,0.411h3.517  h3.533v-0.367c0-0.381-0.244-0.549-0.811-0.549c-0.581,0-1.299-0.567-1.683-1.331c-0.335-0.674-1.635-4.376-5.092-14.528  c-0.658-1.958-1.239-3.564-1.284-3.564C16.487,25.795,16.291,25.886,16.09,25.994z M16.732,33.564  c0.643,1.986,1.178,3.717,1.178,3.823c0,0.151-0.582,0.183-2.554,0.151c-2.478-0.045-2.57-0.06-2.523-0.351  c0.106-0.565,2.523-7.266,2.631-7.266C15.508,29.923,16.09,31.561,16.732,33.564z" />
<path
   id="path10"
   connector-curvature="0"
   fill="#595757"
   stroke="#595757"
   stroke-width="0.5"
   stroke-miterlimit="10"
   d="  M33.435,25.749c-2.246,0.458-3.958,1.559-4.861,3.15c-0.404,0.688-0.499,1.085-0.499,2.095c0,1.101,0.077,1.361,0.614,2.248  c0.731,1.177,2.249,2.371,4.056,3.166c4.709,2.095,5.823,3.027,5.94,4.985c0.094,1.33-0.135,1.958-1.021,2.784  c-1.635,1.514-4.824,1.466-6.785-0.108c-0.902-0.734-2.057-2.355-2.267-3.212c-0.135-0.474-0.481-0.595-1.021-0.336  c-0.209,0.107-0.189,0.474,0.173,2.233c0.23,1.162,0.462,2.201,0.522,2.31c0.151,0.304,1.689,0.811,3.284,1.085  c4.518,0.734,8.689-0.901,9.841-3.883c0.692-1.79,0.386-3.382-0.922-4.758c-0.961-1.009-2.173-1.759-4.825-2.952  c-3.805-1.712-4.728-2.585-4.728-4.572c0-0.887,0.097-1.284,0.442-1.789c1.21-1.834,4.823-2.142,6.591-0.535  c0.617,0.551,1.348,1.713,1.596,2.508c0.136,0.46,0.807,0.598,1,0.213c0.097-0.198-0.423-4.066-0.538-4.142  c-0.038-0.016-0.614-0.154-1.306-0.308C37.107,25.58,34.667,25.504,33.435,25.749z" />
<path
   id="path12"
   connector-curvature="0"
   fill="#595757"
   stroke="#595757"
   stroke-width="0.5"
   stroke-miterlimit="10"
   d="  M9.812,4.12c0.047,0.368,0.123,0.429,0.582,0.474c0.872,0.077,1.346,0.32,1.514,0.825c0.107,0.307,0.167,3.151,0.167,8.259  c0,8.732,0.017,8.549-1.039,8.824c-0.306,0.091-0.734,0.183-0.948,0.199c-0.291,0.03-0.398,0.153-0.429,0.458l-0.046,0.428h3.899  h3.916v-0.383c0-0.397-0.123-0.458-1.345-0.596c-0.795-0.077-1.209-0.413-1.408-1.146c-0.213-0.78-0.199-6.438,0.015-6.438  c0.092,0,0.597,0.106,1.117,0.244c2.845,0.75,5.903-0.581,7.127-3.059c0.611-1.223,0.826-2.631,0.627-3.916  c-0.337-2.08-1.377-3.349-3.35-4.098c-1.01-0.397-1.101-0.397-5.735-0.458l-4.71-0.062L9.812,4.12z M18.59,5.083  c0.857,0.429,1.667,1.361,2.003,2.355c0.306,0.917,0.352,2.905,0.077,3.869c-0.535,1.866-2.033,2.983-3.976,2.983  c-0.597,0-1.331-0.077-1.637-0.185l-0.535-0.183V9.824c0-4.511,0.044-4.802,0.826-5.047C16.083,4.548,17.811,4.716,18.59,5.083z" />
<path
   id="path14"
   connector-curvature="0"
   fill="#595757"
   stroke="#595757"
   stroke-width="0.5"
   stroke-miterlimit="10"
   d="  M24.528,4.088c0.045,0.368,0.138,0.444,0.704,0.536c0.887,0.153,1.438,0.505,1.927,1.253l0.413,0.628l-0.046,7.341  c-0.046,6.683-0.077,7.386-0.322,7.829c-0.275,0.521-0.946,0.964-1.467,0.964c-0.536,0-0.78,0.184-0.78,0.55v0.368h3.364h3.364  v-0.383c0-0.397-0.045-0.413-1.237-0.612c-0.308-0.045-0.72-0.26-0.966-0.52c-0.595-0.627-0.718-2.141-0.67-8.702l0.044-5.537  l0.782,1.025c10.215,13.458,11.392,14.956,11.836,15.002l0.427,0.046l0.062-8.84c0.047-7.815,0.076-8.9,0.307-9.406  c0.29-0.641,0.704-0.917,1.574-1.024c0.536-0.076,0.611-0.152,0.658-0.52l0.045-0.413h-3.38h-3.378l0.044,0.413  c0.047,0.382,0.122,0.444,0.856,0.536c1.637,0.245,1.851,0.611,2.033,3.396c0.186,2.844,0.17,10.98-0.015,10.919  c-0.074-0.031-2.507-3.074-5.384-6.775c-2.889-3.701-5.551-7.127-5.932-7.616l-0.688-0.872h-2.11h-2.111L24.528,4.088z" />
</svg>